<?xml version="1.0" standalone="no"?>
<!DOCTYPE svg PUBLIC "-//W3C//DTD SVG 20010904//EN"
 "http://www.w3.org/TR/2001/REC-SVG-20010904/DTD/svg10.dtd">
<svg version="1.0" xmlns="http://www.w3.org/2000/svg"
 width="250.000000pt" height="50.000000pt" viewBox="0 0 250.000000 50.000000"
 preserveAspectRatio="xMidYMid meet">

<g transform="translate(0.000000,50.000000) scale(0.100000,-0.100000)"
fill="#000000" stroke="none">
<path d="M0 435 l0 -65 358 -3 357 -2 -357 -3 -358 -2 0 -180 0 -180 1250 0
1250 0 0 250 0 250 -1250 0 -1250 0 0 -65z m736 33 c-3 -13 -6 -26 -6 -30 0
-5 -90 -8 -200 -8 -173 0 -199 2 -195 15 3 8 7 22 10 30 4 13 35 15 201 15
l196 0 -6 -22z m-46 -149 c0 -5 -5 -30 -11 -55 l-11 -44 -248 0 -248 0 10 38
c21 77 2 72 268 72 162 0 240 -3 240 -11z m-40 -149 c0 -11 -6 -23 -13 -26 -7
-2 -76 -3 -154 -2 l-140 3 8 23 c8 21 12 22 154 22 139 0 145 -1 145 -20z"/>
</g>
</svg>
